<svg xmlns="http://www.w3.org/2000/svg" width="99" height="86" viewBox="0 0 99 86" fill="none">
  <path fill="currentColor" d="M98.89 74.17L57.36 2.18a.976.976 0 0 0-.97-.93H43.36c-.35 0-.67.18-.85.49L1.12 74.17v.01c-.09.14-.13.3-.14.47 0 .02-.01.03-.01.05 0 .02.01.04.01.06 0 .09.02.18.05.26.01.03.02.06.04.1.02.05.03.09.05.14l6.32 10.48c.18.29.49.47.84.47h83.76l-.02.04c.29 0 .53-.15.71-.36.04-.05.09-.07.12-.12l6.04-10.63c.18-.3.18-.67 0-.97zm-55-70.96h10.72L19.82 63.14a.982.982 0 0 0 .85 1.47h46.58l5.39 9.11H3.62L43.89 3.21zm6.6 33.07l15.6 26.37H34.2l16.29-26.37zM3.68 75.68h70.68c.36-.01.68-.21.85-.52.17-.31.17-.68 0-.99L51.65 34.4l4.65-7.54 34 57.36H8.83l-5.15-8.54zm88.34 7.6l-34.87-58.8a.958.958 0 0 0-.84-.48c-.34 0-.65.18-.83.47L31.92 62.65H22.4L56.32 4.19l40.63 70.4-4.93 8.69z"/>
</svg>
