<svg fill="none" stroke="currentColor" stroke-width="1.5" fill-rule="evenodd" height="56" viewBox="-0.06 -0.02 27.15 27.15" width="56" xmlns="http://www.w3.org/2000/svg" style="flex: 0 0 auto; line-height: 1;">
<path d="M0.5 17.8871V6.15115L13.3279 0.53897C13.4466 0.48701 13.5817 0.48701 13.7004 0.53897L26.5283 6.15115V9.17225M13.5141 11.8448L10.5926 10.5666L0.5 6.15115M13.5141 11.8448L23.0423 7.67624L26.5283 6.15115M0.5 17.8871V20.8317C0.5 21.0189 0.61232 21.1878 0.78494 21.2603L1.66198 21.6283M0.5 17.8871L10.5926 10.5666M23.0423 7.67624L13.5141 22.3027M26.5283 9.17225V20.8317C26.5283 21.0189 26.416 21.1878 26.2433 21.2603L16.4191 25.3829M26.5283 9.17225L16.4191 25.3829M13.5141 26.602V22.3027M1.66198 21.6283L13.5141 26.602L16.4191 25.3829M13.5141 22.3027V13.1229M1.66198 21.6283L13.5141 13.1229M13.5141 11.8448V13.1229"  stroke-linecap="round" stroke-linejoin="round"/>
</svg>