<svg fill="currentColor" fill-rule="evenodd" height="56" viewBox="-3.35 -29.10 173.97 173.97" width="56" xmlns="http://www.w3.org/2000/svg" style="flex: 0 0 auto; line-height: 1;">
<path d="M56.4143 0C67.5833 0.0002 76.9044 5.10161 84.5061 12.961C87.7933 16.3596 90.7839 20.2966 93.5013 24.6114C104.126 20.4307 114.692 19.0281 123.916 22.8125C132.614 26.3812 137.612 32.7531 139.779 40.5586C141.895 48.1792 141.283 57.0092 139.29 65.8077C138.59 68.9004 137.707 72.0308 136.689 75.1543C140.693 74.8584 144.42 74.7205 147.789 74.7696C152.901 74.8441 157.421 75.347 160.889 76.5049C167.347 78.6613 169.42 86.6155 164.725 91.6143C161.632 94.9069 156.351 98.5814 148.516 102.549C140.626 106.546 129.939 110.942 115.842 115.594C114.831 115.928 113.723 115.777 112.837 115.187C111.951 114.597 111.385 113.632 111.304 112.57C110.723 104.986 109.576 95.8051 107.759 86.0518C101.07 87.2616 94.1046 88.682 87.0491 90.2579C55.5607 97.2908 22.6838 107.339 4.90067 115.456C3.81364 115.952 2.54737 115.853 1.55106 115.193C0.55502 114.533 -0.0308495 113.407 0.00125453 112.213C0.49756 93.8505 3.76501 66.2464 12.0432 43.1123C16.1805 31.5506 21.6515 20.8695 28.8489 13.0264C36.1068 5.11748 45.228 0 56.4143 0ZM147.689 81.6944C143.741 81.6368 139.174 81.8551 134.119 82.3155C130.818 90.7759 126.729 98.9344 122.733 105.893C132.176 102.488 139.625 99.2894 145.387 96.3711C152.935 92.5477 157.39 89.3063 159.676 86.8721C160.878 85.5919 160.408 83.647 158.695 83.0752C156.225 82.2503 152.536 81.7651 147.689 81.6944ZM90.6018 33.4463C78.7356 39.1869 66.1384 48.5321 54.303 59.0625C42.493 69.5704 31.5751 81.1395 23.0686 91.2002C18.7393 96.3206 15.0902 100.984 12.2806 104.877C31.4107 97.4804 59.0766 89.4087 85.5403 83.4981C92.6212 81.9166 99.6371 80.4851 106.401 79.2598C103.987 67.9721 100.684 56.2508 96.3391 45.586C94.5948 41.3041 92.6941 37.2247 90.635 33.4307C90.6241 33.436 90.6128 33.441 90.6018 33.4463ZM126.303 83.17C122.561 83.6404 118.639 84.2134 114.585 84.876C115.678 90.755 116.531 96.4228 117.17 101.67C120.349 96.0706 123.55 89.7371 126.303 83.17ZM56.4143 6.92676C47.5974 6.92676 40.2192 10.879 33.9515 17.709C27.6232 24.605 22.5407 34.3327 18.5638 45.4463C12.358 62.7888 9.04347 82.9349 7.65751 99.4634C10.4772 95.637 13.9061 91.3097 17.7796 86.7286C26.4635 76.4579 37.6083 64.6458 49.6995 53.8877C61.6103 43.2902 74.5699 33.5976 87.097 27.4502C84.7535 23.829 82.2322 20.5717 79.5276 17.7754C72.8737 10.8961 65.2482 6.92696 56.4143 6.92676ZM121.287 29.2198C114.6 26.4762 106.347 27.1711 97.0188 30.6778C99.1128 34.5893 101.02 38.7196 102.753 42.9727C107.304 54.1446 110.738 66.3627 113.231 78.0791C118.796 77.1661 124.135 76.4147 129.134 75.8594C130.507 71.9825 131.672 68.0889 132.535 64.2774C134.407 56.0145 134.788 48.4692 133.107 42.4112C131.476 36.538 127.886 31.9268 121.287 29.2198Z" />
</svg>