<svg fill="currentColor" fill-rule="evenodd" height="1em" style="flex:none;line-height:1" viewBox="0 0 735 757" width="1em" xmlns="http://www.w3.org/2000/svg"><path clip-rule="evenodd" d="M357.038 52.288 283.655 104.601 227.891 247.524C194.553 332.967 172.588 390.556 173.274 390.72c1.171.279 425.288-132.081 426.226-133.018C600.225 256.976 432.641.031 431.422.00000624438 430.872-.0139938 397.399 23.515 357.038 52.288ZM538.749 84.759c-5.32 4.228-9.968 7.985-10.329 8.35-.665.67 99.325 156.949 102.358 159.98 1.875 1.874 79.763 35.16 81.138 34.675 1.14-.403-160.629-210.253-162.275-210.505-.67-.103-5.572 3.272-10.892 7.5ZM57.4219 239.973C26.6219 280.125.844852 313.809.139852 314.826c-1.188002 1.714 3.841998 4.638 68.855948 40.032 38.5762 21.001 70.5742 38.039 71.1062 37.861 1.12-.373 72.985-183.777 72.538-185.118-.294-.884-96.296-40.583-98.218-40.615-.55-.01-26.2001 32.835-57.0001 72.987ZM625.946 291.196c-1.568 3.438-42.711 93.066-91.43 199.175-48.718 106.108-88.357 193.146-88.086 193.416.271.271.657.305.859.076.202-.229 65.024-80.248 144.049-177.819 79.024-97.57 143.322-177.715 142.882-178.1-.886-.775-103.789-42.998-104.792-42.998-.347 0-1.914 2.813-3.482 6.25ZM382.922 354.717c-116.325 36.025-211.642 65.619-211.816 65.765-.466.388 206.21 336.458 206.917 336.461.728.004 217.289-466.962 216.767-467.41-.202-.174-95.543 29.159-211.868 65.184ZM39.9219 371.447c0 .732 221.6241 257.149 222.9821 257.988.56.346 1.018.38 1.018.076 0-.611-122.164-199.524-125.049-203.612-1.152-1.632-18.448-11.562-48.1252-27.63-53.686-29.068-50.8259-27.559-50.8259-26.822Z"/></svg>
