<svg fill="currentColor" fill-rule="evenodd" height="56" viewBox="-0.71 -8.44 36.76 36.76" width="56" xmlns="http://www.w3.org/2000/svg" style="flex: 0 0 auto; line-height: 1;">
<path d="M35.3422 2.15654C35.3422 0.241524 33.0215 -0.719819 31.6599 0.631149L12.9884 19.1566C12.7217 19.4212 12.9097 19.8751 13.286 19.8751H15.9841C16.1121 19.8751 16.2398 19.8655 16.3663 19.8462L20.5294 19.2124C23.165 18.8111 25.8476 18.8274 28.4781 19.2608L32.0012 19.8412C32.1377 19.8637 32.2757 19.875 32.4139 19.875H34.3108C34.8804 19.875 35.3422 19.4147 35.3422 18.8468V2.15654Z" />
<path opacity="0.6" d="M6.48226 19.8685C6.10659 19.8685 5.9183 19.4159 6.18375 19.1509L19.0945 6.26271C19.8494 5.50917 21.0743 5.50873 21.8297 6.26172C22.5847 7.01432 22.5847 8.23452 21.8297 8.98712L11.4991 19.2847C11.1241 19.6585 10.6155 19.8685 10.0852 19.8685H6.48226Z" />
<path opacity="0.4" d="M1.00181 19.8722C0.111565 19.8722 -0.334737 18.7997 0.294129 18.1716L8.13992 10.3352C8.89461 9.58149 10.1196 9.58088 10.8751 10.3339C11.63 11.0864 11.63 12.3064 10.8751 13.0589L4.62564 19.2883C4.25065 19.6621 3.74207 19.8721 3.21176 19.8721L1.00181 19.8722Z" />
</svg>