<svg fill="currentColor" fill-rule="evenodd" height="56" viewBox="-32.68 -31.71 1648.70 1648.70" width="56" xmlns="http://www.w3.org/2000/svg" style="flex: 0 0 auto; line-height: 1;">
<path d="M157.38 2.34042C184.281 2.31438 211.177 2.28313 238.891 2.25709C267.224 2.34042 295.552 2.42896 324.745 2.51751C367.24 2.3873 367.24 2.3873 410.594 2.25709C450.943 2.29876 450.943 2.29876 492.104 2.34042C516.984 2.36647 541.859 2.39251 567.495 2.41855C624.745 5.29355 624.745 5.29355 646.964 27.5175C648.911 73.5748 649.344 119.7 649.135 165.799C649.062 193.799 648.99 221.799 648.917 250.648C648.734 280.439 648.547 310.226 648.354 340.018C648.245 369.893 648.141 399.768 648.052 429.643C647.786 503.007 647.391 576.372 646.964 649.736C514.964 657.07 382.964 664.403 246.964 671.96C254.297 752.627 261.63 833.294 269.188 916.403C311.302 918.215 353.438 919.502 395.578 920.57C430.766 921.731 430.766 921.731 466.672 922.913C581.151 912.143 653.943 848.137 738.63 774.736C753.354 762.189 768.078 749.643 783.25 736.715C867.359 650.497 899.536 577.221 902 457.116C903.031 421.861 903.031 421.861 904.083 385.893C904.484 361.585 904.885 337.278 905.297 312.236C906.427 263.768 907.641 215.304 908.943 166.84C909.333 145.434 909.724 124.033 910.125 101.981C913.63 49.7363 913.63 49.7363 935.854 5.29355C1024.06 4.74667 1112.27 4.34042 1200.47 4.0748C1230.51 3.96021 1260.53 3.80917 1290.56 3.61647C1333.64 3.35084 1376.71 3.23105 1419.8 3.12167C1458.72 2.9498 1458.72 2.9498 1498.44 2.77272C1558.08 5.29355 1558.08 5.29355 1580.3 27.5175C1582.24 73.5748 1582.68 119.7 1582.47 165.799C1582.36 207.799 1582.36 207.799 1582.25 250.648C1582.07 280.439 1581.88 310.226 1581.69 340.018C1581.58 369.893 1581.47 399.768 1581.39 429.643C1581.12 503.007 1580.76 576.372 1580.3 649.736C1523.77 678.002 1482.77 675.127 1419.54 675.866C1396.22 676.398 1372.9 676.924 1348.88 677.471C1299.81 678.419 1250.73 679.116 1201.65 679.554C1064.98 683.148 976.036 689.07 869.188 783.07C854.177 795.877 839.167 808.679 823.703 821.872C811.214 834.278 798.724 846.679 785.854 859.46C766.776 877.981 766.776 877.981 747.312 896.872C679.458 980.986 663.62 1065.57 660.766 1171.61C660.01 1194.22 659.25 1216.81 658.469 1240.1C657.88 1263.45 657.292 1286.79 656.688 1310.85C655.359 1357.5 653.948 1404.14 652.432 1450.78C651.901 1471.37 651.37 1491.96 650.823 1513.17C646.964 1560.85 646.964 1560.85 624.745 1583.07C578.682 1585.02 532.562 1585.45 486.464 1585.24C461.25 1585.18 436.042 1585.13 410.068 1585.07C361.646 1584.77 361.646 1584.77 312.245 1584.46C158.932 1583.77 158.932 1583.77 2.52083 1583.07C2.52083 1370.4 2.52083 1157.74 2.52083 938.627C46.5208 923.96 90.5208 909.294 135.854 894.184C135.854 820.851 135.854 747.518 135.854 671.96C91.8542 664.627 47.8542 657.294 2.52083 649.736C1.97396 561.533 1.56771 473.325 1.30208 385.116C1.1875 355.09 1.03646 325.059 0.84375 295.033C0.578125 251.955 0.458333 208.877 0.348958 165.799C0.234374 139.846 0.119792 113.893 0 87.1581C4.63021 -22.3471 60.7552 2.43938 157.38 2.34042Z" />
<path d="M935.854 938.627C1024.06 938.08 1112.27 937.674 1200.47 937.408C1230.51 937.294 1260.53 937.142 1290.56 936.95C1333.64 936.684 1376.71 936.564 1419.8 936.455C1458.72 936.283 1458.72 936.283 1498.44 936.106C1558.08 938.627 1558.08 938.627 1580.3 960.851C1582.52 1005.02 1583.2 1049.26 1583.25 1093.49C1583.29 1133.84 1583.29 1133.84 1583.34 1175C1583.25 1203.33 1583.17 1231.66 1583.08 1260.85C1583.2 1303.35 1583.2 1303.35 1583.34 1346.7C1583.31 1373.6 1583.28 1400.5 1583.25 1428.21C1583.22 1453.09 1583.2 1477.97 1583.17 1503.6C1580.3 1560.85 1580.3 1560.85 1558.08 1583.07C1512.02 1585.02 1465.9 1585.45 1419.8 1585.24C1391.79 1585.17 1363.79 1585.1 1334.94 1585.02C1305.16 1584.84 1275.36 1584.65 1245.58 1584.46C1215.7 1584.35 1185.82 1584.25 1155.95 1584.16C1082.58 1583.89 1009.22 1583.53 935.854 1583.07C906.521 1524.4 910.755 1479.94 910.682 1414.32C910.635 1377.24 910.635 1377.24 910.594 1339.41C910.677 1313.48 910.766 1287.56 910.854 1260.85C910.766 1234.92 910.682 1209 910.594 1182.29C910.62 1157.57 910.651 1132.85 910.682 1107.38C910.719 1073.24 910.719 1073.24 910.755 1038.41C913.63 983.07 913.63 983.07 935.854 938.627Z" />
</svg>